<?xml version="1.0" encoding="utf-8"?>
<!-- Uploaded to: SVG Repo, www.svgrepo.com, Generator: SVG Repo Mixer Tools -->
<svg width="800px" height="800px" viewBox="0 0 1024 1024" class="icon"  version="1.1" xmlns="http://www.w3.org/2000/svg"><path d="M778.590046 301.80351l28.137393-28.137393 28.236709 28.232614 34.920633-34.920633-79.749404-79.749404-34.920633 34.923705 28.232614 28.232614-28.137393 28.137392c-61.708545-56.564545-142.037468-92.838754-230.885117-98.562273V112.849569h-49.393252v67.111587c-197.571984 12.766826-353.982754 176.605884-353.982753 377.424609 0 209.149055 169.529813 378.678868 378.678867 378.678868S878.406578 766.53482 878.406578 557.385765c0-98.62473-38.042459-188.180908-99.816532-255.582255zM516.191787 603.755483v68.879838h-32.928153v-68.879838c-19.134369-6.78324-32.928152-24.887581-32.928152-46.369718 0-21.479066 13.793783-39.583407 32.928152-46.369719V293.956453h32.928153v217.058569c19.134369 6.786312 32.928152 24.890652 32.928152 46.369719 0 21.483162-13.793783 39.587502-32.928152 46.370742z" fill="#98C4D8" /><path d="M745.66087 268.875358l28.137393-28.137393 28.236709 28.232614 34.920633-34.920633-79.749404-79.749404-34.920633 34.923705 28.232614 28.232614-28.137393 28.137392c-61.708545-56.564545-142.037468-92.838754-230.885117-98.562273V79.920393h-49.393251v67.111587c-197.571984 12.766826-353.982754 176.605884-353.982754 377.424609 0 209.149055 169.529813 378.678868 378.678868 378.678868S845.477403 733.606668 845.477403 524.456589c0-98.623706-38.042459-188.179884-99.816533-255.581231zM483.262611 570.827331v68.879838h-32.928152v-68.879838c-19.134369-6.78324-32.928152-24.887581-32.928153-46.369718 0-21.479066 13.793783-39.583407 32.928153-46.369719V261.028301h32.928152v217.058569c19.134369 6.786312 32.928152 24.890652 32.928152 46.369719 0.001024 21.483162-13.792759 39.587502-32.928152 46.370742z" fill="#EFD9A0" /><path d="M314.156875 296.658172a29.625098 62.952565 55.515 1 0 103.780382-71.286284 29.625098 62.952565 55.515 1 0-103.780382 71.286284Z" fill="#FEFEFE" /><path d="M250.542529 400.25718a19.749724 34.562273 55.515 1 0 56.977597-39.137659 19.749724 34.562273 55.515 1 0-56.977597 39.137659Z" fill="#FEFEFE" /></svg>